<svg width="305" height="50" viewBox="0 0 305 50" fill="none" xmlns="http://www.w3.org/2000/svg">
<mask id="mask0_1876_1087" style="mask-type:luminance" maskUnits="userSpaceOnUse" x="1" y="1" width="131" height="34">
<path d="M132 1H1V35H132V1Z" fill="white"/>
</mask>
<g mask="url(#mask0_1876_1087)">
<path d="M20.0458 15.3546C20.0679 19.3423 21.6998 23.1599 24.5862 25.9764C27.4726 28.7929 31.3798 30.3803 35.4571 30.3928C39.5284 30.3713 43.4267 28.78 46.3056 25.9644C49.1844 23.1489 50.8115 19.3364 50.8335 15.3546V12.0189C50.8354 11.6007 51.0061 11.2001 51.3085 10.9043C51.6108 10.6086 52.0204 10.4417 52.4481 10.4399H53.9018C54.3295 10.4417 54.7391 10.6086 55.0414 10.9043C55.3438 11.2001 55.5145 11.6007 55.5164 12.0189V15.3546C55.4998 20.5552 53.382 25.5385 49.6246 29.2185C45.8671 32.8984 40.7746 34.9766 35.4571 35C30.1311 34.9892 25.0262 32.9166 21.2581 29.2353C17.4901 25.554 15.3656 20.5635 15.349 15.3546V12.0189C15.3508 11.6007 15.5215 11.2001 15.8239 10.9043C16.1263 10.6086 16.5359 10.4417 16.9635 10.4399H18.4173C18.8449 10.4417 19.2545 10.6086 19.5569 10.9043C19.8593 11.2001 20.03 11.6007 20.0318 12.0189V15.3546H20.0458Z" fill="#3F526F"/>
<path fill-rule="evenodd" clip-rule="evenodd" d="M56.9142 22.6277C56.9005 21.0682 57.217 19.5228 57.8438 18.0889C59.0426 15.3161 61.299 13.1093 64.1341 11.9369C65.5934 11.3413 67.1589 11.0346 68.7401 11.0346C70.3213 11.0346 71.8868 11.3413 73.346 11.9369C74.7506 12.5278 76.0304 13.3692 77.1202 14.4182C78.2166 15.4654 79.0927 16.7124 79.6992 18.0889C80.3208 19.517 80.6349 21.0551 80.6218 22.6072V32.6622C80.6218 33.0817 80.452 33.484 80.1494 33.7812C79.8468 34.0784 79.4362 34.2463 79.0073 34.2481H77.5466C77.1165 34.2481 76.7041 34.081 76.4 33.7836C76.0959 33.4862 75.925 33.0828 75.925 32.6622V22.6277C75.937 21.6887 75.7489 20.7575 75.3729 19.8934C74.8205 18.624 73.8969 17.5425 72.718 16.7849C71.5392 16.0272 70.1577 15.6271 68.7471 15.6349C67.7871 15.6252 66.8354 15.809 65.9513 16.1749C65.1045 16.5295 64.3338 17.0374 63.6798 17.6719C63.028 18.309 62.5082 19.0634 62.1492 19.8934C61.7764 20.7585 61.5885 21.689 61.597 22.6277V32.6622C61.597 33.0828 61.4262 33.4862 61.1221 33.7836C60.818 34.081 60.4056 34.2481 59.9755 34.2481H58.5357C58.1057 34.2481 57.6932 34.081 57.3891 33.7836C57.085 33.4862 56.9142 33.0828 56.9142 32.6622V22.6277Z" fill="#3F526F"/>
<path fill-rule="evenodd" clip-rule="evenodd" d="M30.306 1C30.9723 1 31.6237 1.19323 32.1777 1.55526C32.7317 1.91729 33.1634 2.43186 33.4184 3.03389C33.6734 3.63593 33.7401 4.29839 33.6101 4.9375C33.4801 5.57662 33.1593 6.16368 32.6882 6.62446C32.217 7.08524 31.6167 7.39903 30.9633 7.52616C30.3098 7.65329 29.6324 7.58804 29.0168 7.33867C28.4013 7.0893 27.8751 6.667 27.505 6.12519C27.1348 5.58337 26.9372 4.94637 26.9372 4.29473C26.9372 3.42092 27.2921 2.58289 27.9239 1.965C28.5557 1.34712 29.4126 1 30.306 1Z" fill="#FF595D"/>
<path fill-rule="evenodd" clip-rule="evenodd" d="M40.6012 1C41.2675 1 41.9189 1.19323 42.4729 1.55526C43.0269 1.91729 43.4587 2.43186 43.7136 3.03389C43.9686 3.63593 44.0353 4.29839 43.9053 4.9375C43.7754 5.57662 43.4545 6.16368 42.9834 6.62446C42.5122 7.08524 41.912 7.39903 41.2585 7.52616C40.605 7.65329 39.9276 7.58804 39.312 7.33867C38.6965 7.0893 38.1703 6.667 37.8002 6.12519C37.43 5.58337 37.2324 4.94637 37.2324 4.29473C37.2324 3.42092 37.5873 2.58289 38.2191 1.965C38.8509 1.34712 39.7078 1 40.6012 1Z" fill="#FF595D"/>
<path fill-rule="evenodd" clip-rule="evenodd" d="M12.8818 6.36591C11.9361 6.36192 10.999 6.54107 10.1245 6.89303C9.25005 7.24499 8.45545 7.76279 7.78659 8.41657C7.12177 9.06346 6.59427 9.83251 6.23443 10.6795C5.87458 11.5265 5.6895 12.4347 5.6898 13.3518V15.7238H11.6097C12.0398 15.7238 12.4522 15.8909 12.7563 16.1883C13.0604 16.4857 13.2312 16.889 13.2312 17.3096V18.7382C13.2294 19.1577 13.0577 19.5593 12.7538 19.8552C12.4499 20.1511 12.0386 20.3173 11.6097 20.3173H5.69679V22.696V32.6759C5.6968 33.0953 5.52692 33.4977 5.22434 33.7949C4.92175 34.0921 4.51111 34.26 4.08227 34.2618H2.62151C2.40739 34.2618 2.19539 34.2203 1.99774 34.1398C1.80009 34.0592 1.62071 33.9412 1.46996 33.7925C1.3192 33.6437 1.20006 33.4673 1.11939 33.2733C1.03873 33.0793 0.998153 32.8717 0.999999 32.6622V13.3382C0.986349 11.786 1.30043 10.2478 1.92258 8.81987C2.52575 7.44331 3.39966 6.19612 4.49464 5.14918C5.58986 4.09892 6.8773 3.25951 8.28981 2.67471C9.74156 2.07016 11.3039 1.76085 12.8818 1.76559H18.4243C18.8538 1.76739 19.2651 1.93504 19.5688 2.23206C19.8725 2.52907 20.0439 2.9314 20.0458 3.35143V4.78006C20.0439 5.2001 19.8725 5.60242 19.5688 5.89944C19.2651 6.19645 18.8538 6.36411 18.4243 6.36591H12.8818Z" fill="#3F526F"/>
<path fill-rule="evenodd" clip-rule="evenodd" d="M106.042 16.7218C106.471 16.7236 106.883 16.8912 107.186 17.1882C107.49 17.4852 107.662 17.8876 107.663 18.3076V19.7362C107.662 20.1563 107.49 20.5586 107.186 20.8556C106.883 21.1526 106.471 21.3203 106.042 21.3221H95.6558C95.2263 21.3203 94.8149 21.1526 94.5112 20.8556C94.2075 20.5586 94.0361 20.1563 94.0343 19.7362V18.3076C94.0361 17.8876 94.2075 17.4852 94.5112 17.1882C94.8149 16.8912 95.2263 16.7236 95.6558 16.7218H106.042ZM104.875 8.08163H98.5354C95.5729 8.09243 92.7349 9.24818 90.6401 11.2969C88.5453 13.3456 87.3636 16.1212 87.3525 19.0185C87.3636 21.9158 88.5453 24.6914 90.6401 26.7401C92.7349 28.7888 95.5729 29.9446 98.5354 29.9554H106.042C106.471 29.9572 106.883 30.1248 107.186 30.4218C107.49 30.7189 107.662 31.1212 107.663 31.5412V32.963C107.662 33.383 107.49 33.7854 107.186 34.0824C106.883 34.3794 106.471 34.5471 106.042 34.5489H98.5354C94.3254 34.538 90.291 32.8976 87.314 29.9862C84.3371 27.0747 82.6598 23.1291 82.6487 19.0117C82.6616 14.8955 84.3398 10.9516 87.3165 8.04158C90.2932 5.13161 94.3266 3.49213 98.5354 3.48131H106.042C106.258 3.48126 106.471 3.52338 106.671 3.60521C106.87 3.68703 107.05 3.80691 107.201 3.95781C107.352 4.10871 107.471 4.28759 107.55 4.48395C107.629 4.68032 107.668 4.89022 107.663 5.10133V6.46844C107.663 6.6767 107.621 6.88291 107.54 7.07532C107.458 7.26772 107.339 7.44254 107.188 7.5898C107.038 7.73706 106.859 7.85388 106.662 7.93357C106.466 8.01327 106.255 8.05429 106.042 8.05429L104.875 8.08163Z" fill="#FF595D"/>
<path fill-rule="evenodd" clip-rule="evenodd" d="M110.396 12.8323L117.854 22.5251L110.55 32.0129L109.753 33.045C109.657 33.1889 109.602 33.3554 109.594 33.527C109.586 33.6987 109.625 33.8693 109.707 34.0213C109.789 34.1733 109.911 34.3011 110.06 34.3914C110.21 34.4818 110.381 34.5314 110.557 34.5352H113.171C113.618 34.5465 114.061 34.4418 114.454 34.2317C114.847 34.0216 115.176 33.7136 115.407 33.339L116.428 32.0129L120.796 26.3462L125.158 32.0129L126.178 33.339C126.41 33.7136 126.739 34.0216 127.131 34.2317C127.524 34.4418 127.967 34.5465 128.415 34.5352H131.035C131.211 34.5302 131.381 34.4797 131.53 34.3889C131.678 34.2981 131.799 34.1702 131.88 34.0184C131.961 33.8666 132 33.6964 131.991 33.5253C131.983 33.3543 131.928 33.1885 131.832 33.045L131.035 32.0129L123.732 22.5251L131.189 12.8323C131.286 12.6895 131.341 12.524 131.349 12.3531C131.358 12.1822 131.32 12.0122 131.238 11.8607C131.157 11.7093 131.036 11.5819 130.887 11.4919C130.738 11.4019 130.567 11.3526 130.392 11.349H127.771C127.324 11.3377 126.881 11.4424 126.488 11.6525C126.096 11.8626 125.767 12.1706 125.535 12.5452L120.796 18.6972L116.05 12.5452C115.819 12.1706 115.49 11.8626 115.097 11.6525C114.704 11.4424 114.261 11.3377 113.814 11.349H111.2C111.024 11.3514 110.853 11.3998 110.703 11.4893C110.553 11.5788 110.431 11.7061 110.349 11.8578C110.267 12.0094 110.228 12.1799 110.236 12.3514C110.244 12.5229 110.3 12.689 110.396 12.8323Z" fill="#FF595D"/>
</g>
<path d="M56.6714 37.75H57.9658V44.7593L57.8423 46H56.6714V37.75ZM61.7578 43.0405V43.1533C61.7578 43.583 61.7095 43.9787 61.6128 44.3403C61.5197 44.6984 61.3765 45.0099 61.1831 45.2749C60.9933 45.5399 60.757 45.7458 60.4741 45.8926C60.1948 46.0358 59.8708 46.1074 59.502 46.1074C59.1403 46.1074 58.8252 46.0394 58.5566 45.9033C58.2881 45.7673 58.0625 45.5739 57.8799 45.3232C57.7008 45.0726 57.5558 44.7736 57.4448 44.4263C57.3338 44.0789 57.255 43.6958 57.2085 43.2769V42.917C57.255 42.4945 57.3338 42.1113 57.4448 41.7676C57.5558 41.4202 57.7008 41.1213 57.8799 40.8706C58.0625 40.6164 58.2863 40.4212 58.5513 40.2852C58.8198 40.1491 59.1331 40.0811 59.4912 40.0811C59.8636 40.0811 60.1912 40.1527 60.4741 40.2959C60.7606 40.4391 60.9987 40.6432 61.1885 40.9082C61.3783 41.1696 61.5197 41.4811 61.6128 41.8428C61.7095 42.2044 61.7578 42.6037 61.7578 43.0405ZM60.4634 43.1533V43.0405C60.4634 42.7791 60.4419 42.5339 60.3989 42.3047C60.356 42.0719 60.2843 41.8678 60.1841 41.6924C60.0874 41.5169 59.9549 41.3791 59.7866 41.2788C59.6219 41.175 59.416 41.123 59.1689 41.123C58.9398 41.123 58.7428 41.1624 58.5781 41.2412C58.4134 41.32 58.2756 41.4274 58.1646 41.5635C58.0535 41.6995 57.9658 41.8571 57.9014 42.0361C57.8405 42.2152 57.7993 42.4085 57.7778 42.6162V43.5884C57.8101 43.8569 57.8781 44.104 57.9819 44.3296C58.0894 44.5516 58.2397 44.7306 58.4331 44.8667C58.6265 44.9992 58.8753 45.0654 59.1797 45.0654C59.4196 45.0654 59.6219 45.0171 59.7866 44.9204C59.9513 44.8237 60.082 44.6895 60.1787 44.5176C60.279 44.3421 60.3506 44.138 60.3936 43.9053C60.4401 43.6725 60.4634 43.4219 60.4634 43.1533ZM64.3656 45.3662L65.9447 40.1885H67.3304L64.9994 46.8862C64.9457 47.0295 64.8758 47.1852 64.7899 47.3535C64.704 47.5218 64.5912 47.6812 64.4515 47.8315C64.3155 47.9855 64.1454 48.109 63.9413 48.2021C63.7372 48.2988 63.4901 48.3472 63.2001 48.3472C63.0855 48.3472 62.9745 48.3364 62.8671 48.3149C62.7632 48.297 62.6647 48.2773 62.5716 48.2559L62.5663 47.2676C62.6021 47.2712 62.645 47.2747 62.6952 47.2783C62.7489 47.2819 62.7919 47.2837 62.8241 47.2837C63.0389 47.2837 63.218 47.2568 63.3612 47.2031C63.5044 47.153 63.6208 47.0706 63.7103 46.9561C63.8034 46.8415 63.8822 46.6875 63.9466 46.4941L64.3656 45.3662ZM63.474 40.1885L64.8544 44.5391L65.0853 45.9033L64.1883 46.1343L62.0775 40.1885H63.474ZM72.0679 38.1797V46H70.7198V38.1797H72.0679ZM75.2584 41.6011V42.6699H71.7242V41.6011H75.2584ZM75.7042 38.1797V39.2539H71.7242V38.1797H75.7042ZM79.9179 44.6304V40.1885H81.2177V46H79.9931L79.9179 44.6304ZM80.1005 43.4219L80.5356 43.4111C80.5356 43.8014 80.4926 44.1613 80.4067 44.4907C80.3207 44.8166 80.1883 45.1012 80.0092 45.3447C79.8302 45.5846 79.601 45.7726 79.3217 45.9087C79.0424 46.0412 78.7076 46.1074 78.3173 46.1074C78.0344 46.1074 77.7748 46.0662 77.5385 45.9839C77.3022 45.9015 77.0981 45.7744 76.9262 45.6025C76.7579 45.4307 76.6272 45.2069 76.5341 44.9312C76.441 44.6554 76.3945 44.326 76.3945 43.9429V40.1885H77.6889V43.9536C77.6889 44.1649 77.714 44.3421 77.7641 44.4854C77.8142 44.625 77.8823 44.7378 77.9682 44.8237C78.0541 44.9097 78.1544 44.9705 78.269 45.0063C78.3836 45.0422 78.5053 45.0601 78.6342 45.0601C79.003 45.0601 79.2931 44.9884 79.5043 44.8452C79.7192 44.6984 79.8714 44.5015 79.9609 44.2544C80.054 44.0073 80.1005 43.7298 80.1005 43.4219ZM83.7181 41.4292V46H82.4236V40.1885H83.6429L83.7181 41.4292ZM83.4871 42.8794L83.0682 42.874C83.0717 42.4622 83.129 42.0845 83.24 41.7407C83.3546 41.397 83.5122 41.1016 83.7127 40.8545C83.9168 40.6074 84.1603 40.4176 84.4432 40.2852C84.726 40.1491 85.0411 40.0811 85.3885 40.0811C85.6678 40.0811 85.9202 40.1204 86.1458 40.1992C86.375 40.2744 86.5701 40.3979 86.7313 40.5698C86.896 40.7417 87.0213 40.9655 87.1072 41.2412C87.1932 41.5133 87.2361 41.8481 87.2361 42.2456V46H85.9363V42.2402C85.9363 41.9609 85.8952 41.7407 85.8128 41.5796C85.734 41.4149 85.6176 41.2985 85.4637 41.2305C85.3133 41.1589 85.1253 41.123 84.8997 41.123C84.6777 41.123 84.479 41.1696 84.3035 41.2627C84.1281 41.3558 83.9795 41.4829 83.8577 41.644C83.7396 41.8052 83.6482 41.9914 83.5838 42.2026C83.5193 42.4139 83.4871 42.6395 83.4871 42.8794ZM96.3242 44.9312V46H92.1724V44.9312H96.3242ZM92.5537 38.1797V46H91.2056V38.1797H92.5537ZM95.7818 41.4453V42.498H92.1724V41.4453H95.7818ZM96.2974 38.1797V39.2539H92.1724V38.1797H96.2974ZM98.1747 40.1885L99.2811 42.1167L100.409 40.1885H101.832L100.071 43.0405L101.902 46H100.479L99.2972 43.9912L98.1156 46H96.6869L98.5131 43.0405L96.7567 40.1885H98.1747ZM103.908 41.3057V48.2344H102.614V40.1885H103.806L103.908 41.3057ZM107.695 43.0405V43.1533C107.695 43.5758 107.645 43.9679 107.545 44.3296C107.448 44.6877 107.303 45.001 107.11 45.2695C106.92 45.5345 106.685 45.7404 106.406 45.8872C106.127 46.034 105.804 46.1074 105.439 46.1074C105.078 46.1074 104.761 46.0412 104.489 45.9087C104.22 45.7726 103.993 45.5811 103.806 45.334C103.62 45.0869 103.47 44.7969 103.355 44.4639C103.244 44.1273 103.165 43.7585 103.119 43.3574V42.9224C103.165 42.4963 103.244 42.1095 103.355 41.7622C103.47 41.4149 103.62 41.1159 103.806 40.8652C103.993 40.6146 104.22 40.4212 104.489 40.2852C104.757 40.1491 105.07 40.0811 105.428 40.0811C105.794 40.0811 106.118 40.1527 106.401 40.2959C106.684 40.4355 106.922 40.6361 107.115 40.8975C107.308 41.1553 107.453 41.4668 107.55 41.832C107.647 42.1937 107.695 42.5965 107.695 43.0405ZM106.401 43.1533V43.0405C106.401 42.772 106.376 42.5231 106.325 42.2939C106.275 42.0612 106.197 41.8571 106.089 41.6816C105.982 41.5062 105.844 41.3701 105.676 41.2734C105.511 41.1732 105.312 41.123 105.079 41.123C104.85 41.123 104.653 41.1624 104.489 41.2412C104.324 41.3164 104.186 41.422 104.075 41.5581C103.964 41.6942 103.878 41.8535 103.817 42.0361C103.756 42.2152 103.713 42.4103 103.688 42.6216V43.6636C103.731 43.9214 103.805 44.1577 103.908 44.3726C104.012 44.5874 104.159 44.7593 104.349 44.8882C104.542 45.0135 104.789 45.0762 105.09 45.0762C105.323 45.0762 105.522 45.026 105.686 44.9258C105.851 44.8255 105.985 44.6877 106.089 44.5122C106.197 44.3332 106.275 44.1273 106.325 43.8945C106.376 43.6618 106.401 43.4147 106.401 43.1533ZM109.986 41.2949V46H108.692V40.1885H109.927L109.986 41.2949ZM111.764 40.1509L111.753 41.354C111.674 41.3397 111.588 41.3289 111.495 41.3218C111.406 41.3146 111.316 41.311 111.227 41.311C111.005 41.311 110.81 41.3433 110.641 41.4077C110.473 41.4686 110.331 41.5581 110.217 41.6763C110.106 41.7909 110.02 41.9305 109.959 42.0952C109.898 42.2599 109.862 42.4443 109.852 42.6484L109.556 42.6699C109.556 42.3047 109.592 41.9663 109.664 41.6548C109.735 41.3433 109.843 41.0693 109.986 40.833C110.133 40.5967 110.315 40.4123 110.534 40.2798C110.756 40.1473 111.012 40.0811 111.302 40.0811C111.381 40.0811 111.465 40.0882 111.554 40.1025C111.647 40.1169 111.717 40.133 111.764 40.1509ZM114.919 46.1074C114.49 46.1074 114.101 46.0376 113.754 45.8979C113.41 45.7547 113.116 45.556 112.873 45.3018C112.633 45.0475 112.449 44.7485 112.32 44.4048C112.191 44.061 112.126 43.6904 112.126 43.293V43.0781C112.126 42.6234 112.193 42.2116 112.325 41.8428C112.458 41.474 112.642 41.1589 112.878 40.8975C113.115 40.6325 113.394 40.4302 113.716 40.2905C114.039 40.1509 114.388 40.0811 114.764 40.0811C115.179 40.0811 115.542 40.1509 115.854 40.2905C116.165 40.4302 116.423 40.6271 116.627 40.8813C116.835 41.132 116.989 41.431 117.089 41.7783C117.193 42.1257 117.245 42.5088 117.245 42.9277V43.481H112.755V42.5518H115.967V42.4497C115.96 42.217 115.913 41.9985 115.827 41.7944C115.745 41.5903 115.618 41.4256 115.446 41.3003C115.274 41.175 115.045 41.1123 114.758 41.1123C114.543 41.1123 114.352 41.1589 114.184 41.252C114.019 41.3415 113.881 41.4722 113.77 41.644C113.659 41.8159 113.573 42.0236 113.512 42.2671C113.455 42.507 113.426 42.7773 113.426 43.0781V43.293C113.426 43.5472 113.46 43.7835 113.528 44.002C113.6 44.2168 113.704 44.4048 113.84 44.5659C113.976 44.7271 114.141 44.8542 114.334 44.9473C114.527 45.0368 114.748 45.0815 114.995 45.0815C115.306 45.0815 115.584 45.0189 115.827 44.8936C116.071 44.7682 116.282 44.591 116.461 44.3618L117.143 45.0225C117.018 45.2051 116.855 45.3805 116.654 45.5488C116.454 45.7135 116.208 45.8478 115.918 45.9517C115.632 46.0555 115.299 46.1074 114.919 46.1074ZM121.405 44.4263C121.405 44.2974 121.373 44.181 121.308 44.0771C121.244 43.9697 121.12 43.873 120.938 43.7871C120.759 43.7012 120.494 43.6224 120.143 43.5508C119.835 43.4827 119.552 43.4022 119.294 43.3091C119.04 43.2124 118.822 43.096 118.639 42.96C118.456 42.8239 118.315 42.6628 118.215 42.4766C118.114 42.2904 118.064 42.0755 118.064 41.832C118.064 41.5957 118.116 41.3719 118.22 41.1606C118.324 40.9494 118.472 40.7632 118.666 40.6021C118.859 40.4409 119.094 40.3138 119.369 40.2207C119.649 40.1276 119.96 40.0811 120.304 40.0811C120.791 40.0811 121.208 40.1634 121.555 40.3281C121.906 40.4893 122.175 40.7095 122.361 40.9888C122.547 41.2645 122.64 41.576 122.64 41.9233H121.346C121.346 41.7694 121.307 41.6261 121.228 41.4937C121.153 41.3576 121.038 41.2484 120.884 41.166C120.73 41.0801 120.537 41.0371 120.304 41.0371C120.082 41.0371 119.898 41.0729 119.751 41.1445C119.608 41.2126 119.5 41.3021 119.429 41.4131C119.361 41.5241 119.326 41.6458 119.326 41.7783C119.326 41.875 119.344 41.9627 119.38 42.0415C119.42 42.1167 119.484 42.1865 119.574 42.251C119.663 42.3118 119.785 42.3691 119.939 42.4229C120.096 42.4766 120.293 42.5285 120.53 42.5786C120.974 42.6717 121.355 42.7917 121.674 42.9385C121.996 43.0817 122.243 43.2679 122.415 43.4971C122.587 43.7227 122.673 44.0091 122.673 44.3564C122.673 44.6143 122.617 44.8506 122.506 45.0654C122.399 45.2767 122.241 45.4611 122.034 45.6187C121.826 45.7726 121.577 45.8926 121.287 45.9785C121 46.0645 120.678 46.1074 120.32 46.1074C119.794 46.1074 119.348 46.0143 118.983 45.8281C118.618 45.6383 118.34 45.3966 118.15 45.103C117.964 44.8058 117.871 44.4979 117.871 44.1792H119.122C119.137 44.4191 119.203 44.6107 119.321 44.7539C119.443 44.8936 119.593 44.9956 119.772 45.0601C119.955 45.1209 120.143 45.1514 120.336 45.1514C120.569 45.1514 120.764 45.1209 120.922 45.0601C121.079 44.9956 121.199 44.9097 121.282 44.8022C121.364 44.6912 121.405 44.5659 121.405 44.4263ZM126.956 44.4263C126.956 44.2974 126.924 44.181 126.86 44.0771C126.795 43.9697 126.672 43.873 126.489 43.7871C126.31 43.7012 126.045 43.6224 125.694 43.5508C125.386 43.4827 125.103 43.4022 124.845 43.3091C124.591 43.2124 124.373 43.096 124.19 42.96C124.007 42.8239 123.866 42.6628 123.766 42.4766C123.666 42.2904 123.615 42.0755 123.615 41.832C123.615 41.5957 123.667 41.3719 123.771 41.1606C123.875 40.9494 124.024 40.7632 124.217 40.6021C124.41 40.4409 124.645 40.3138 124.921 40.2207C125.2 40.1276 125.511 40.0811 125.855 40.0811C126.342 40.0811 126.759 40.1634 127.107 40.3281C127.458 40.4893 127.726 40.7095 127.912 40.9888C128.098 41.2645 128.192 41.576 128.192 41.9233H126.897C126.897 41.7694 126.858 41.6261 126.779 41.4937C126.704 41.3576 126.589 41.2484 126.435 41.166C126.281 41.0801 126.088 41.0371 125.855 41.0371C125.633 41.0371 125.449 41.0729 125.302 41.1445C125.159 41.2126 125.051 41.3021 124.98 41.4131C124.912 41.5241 124.878 41.6458 124.878 41.7783C124.878 41.875 124.896 41.9627 124.931 42.0415C124.971 42.1167 125.035 42.1865 125.125 42.251C125.214 42.3118 125.336 42.3691 125.49 42.4229C125.647 42.4766 125.844 42.5285 126.081 42.5786C126.525 42.6717 126.906 42.7917 127.225 42.9385C127.547 43.0817 127.794 43.2679 127.966 43.4971C128.138 43.7227 128.224 44.0091 128.224 44.3564C128.224 44.6143 128.168 44.8506 128.057 45.0654C127.95 45.2767 127.792 45.4611 127.585 45.6187C127.377 45.7726 127.128 45.8926 126.838 45.9785C126.552 46.0645 126.229 46.1074 125.871 46.1074C125.345 46.1074 124.899 46.0143 124.534 45.8281C124.169 45.6383 123.891 45.3966 123.701 45.103C123.515 44.8058 123.422 44.4979 123.422 44.1792H124.674C124.688 44.4191 124.754 44.6107 124.872 44.7539C124.994 44.8936 125.144 44.9956 125.323 45.0601C125.506 45.1209 125.694 45.1514 125.887 45.1514C126.12 45.1514 126.315 45.1209 126.473 45.0601C126.63 44.9956 126.75 44.9097 126.833 44.8022C126.915 44.6912 126.956 44.5659 126.956 44.4263Z" fill="#3F526F"/>
<path d="M149 1H148V49H149V1Z" fill="#D2D9E4"/>
<path d="M169.171 15.632C169.171 16.0207 169.079 16.3873 168.896 16.732C168.713 17.0767 168.419 17.359 168.016 17.579C167.613 17.7917 167.096 17.898 166.465 17.898H165.079V21H163.825V13.355H166.465C167.052 13.355 167.547 13.4577 167.95 13.663C168.361 13.861 168.665 14.1323 168.863 14.477C169.068 14.8217 169.171 15.2067 169.171 15.632ZM166.465 16.875C166.942 16.875 167.297 16.7687 167.532 16.556C167.767 16.336 167.884 16.028 167.884 15.632C167.884 14.796 167.411 14.378 166.465 14.378H165.079V16.875H166.465ZM174.008 21L172.248 17.942H171.291V21H170.037V13.355H172.677C173.264 13.355 173.759 13.4577 174.162 13.663C174.573 13.8683 174.877 14.1433 175.075 14.488C175.28 14.8327 175.383 15.2177 175.383 15.643C175.383 16.1417 175.236 16.5963 174.943 17.007C174.657 17.4103 174.213 17.6853 173.612 17.832L175.504 21H174.008ZM171.291 16.941H172.677C173.146 16.941 173.498 16.8237 173.733 16.589C173.975 16.3543 174.096 16.039 174.096 15.643C174.096 15.247 173.979 14.939 173.744 14.719C173.509 14.4917 173.154 14.378 172.677 14.378H171.291V16.941ZM180.144 21.077C179.433 21.077 178.777 20.912 178.175 20.582C177.581 20.2447 177.108 19.779 176.756 19.185C176.412 18.5837 176.239 17.909 176.239 17.161C176.239 16.413 176.412 15.742 176.756 15.148C177.108 14.554 177.581 14.092 178.175 13.762C178.777 13.4247 179.433 13.256 180.144 13.256C180.863 13.256 181.519 13.4247 182.113 13.762C182.715 14.092 183.188 14.554 183.532 15.148C183.877 15.742 184.049 16.413 184.049 17.161C184.049 17.909 183.877 18.5837 183.532 19.185C183.188 19.779 182.715 20.2447 182.113 20.582C181.519 20.912 180.863 21.077 180.144 21.077ZM180.144 19.988C180.65 19.988 181.101 19.8743 181.497 19.647C181.893 19.4123 182.201 19.0823 182.421 18.657C182.649 18.2243 182.762 17.7257 182.762 17.161C182.762 16.5963 182.649 16.1013 182.421 15.676C182.201 15.2507 181.893 14.9243 181.497 14.697C181.101 14.4697 180.65 14.356 180.144 14.356C179.638 14.356 179.187 14.4697 178.791 14.697C178.395 14.9243 178.084 15.2507 177.856 15.676C177.636 16.1013 177.526 16.5963 177.526 17.161C177.526 17.7257 177.636 18.2243 177.856 18.657C178.084 19.0823 178.395 19.4123 178.791 19.647C179.187 19.8743 179.638 19.988 180.144 19.988ZM191.542 13.355L188.671 21H187.219L184.337 13.355H185.679L187.945 19.713L190.222 13.355H191.542ZM193.515 13.355V21H192.261V13.355H193.515ZM197.328 13.355C198.142 13.355 198.854 13.5127 199.462 13.828C200.078 14.136 200.551 14.5833 200.881 15.17C201.219 15.7493 201.387 16.4277 201.387 17.205C201.387 17.9823 201.219 18.657 200.881 19.229C200.551 19.801 200.078 20.241 199.462 20.549C198.854 20.8497 198.142 21 197.328 21H194.831V13.355H197.328ZM197.328 19.977C198.223 19.977 198.909 19.735 199.385 19.251C199.862 18.767 200.1 18.085 200.1 17.205C200.1 16.3177 199.862 15.6247 199.385 15.126C198.909 14.6273 198.223 14.378 197.328 14.378H196.085V19.977H197.328ZM203.554 13.355V21H202.3V13.355H203.554ZM211.151 21H209.897L206.124 15.291V21H204.87V13.344H206.124L209.897 19.042V13.344H211.151V21ZM218.001 15.555C217.803 15.1737 217.528 14.8877 217.176 14.697C216.824 14.499 216.417 14.4 215.955 14.4C215.449 14.4 214.998 14.5137 214.602 14.741C214.206 14.9683 213.895 15.291 213.667 15.709C213.447 16.127 213.337 16.611 213.337 17.161C213.337 17.711 213.447 18.1987 213.667 18.624C213.895 19.042 214.206 19.3647 214.602 19.592C214.998 19.8193 215.449 19.933 215.955 19.933C216.637 19.933 217.191 19.7423 217.616 19.361C218.042 18.9797 218.302 18.4627 218.397 17.81H215.526V16.809H219.739V17.788C219.659 18.382 219.446 18.9283 219.101 19.427C218.764 19.9257 218.32 20.3253 217.77 20.626C217.228 20.9193 216.623 21.066 215.955 21.066C215.237 21.066 214.58 20.901 213.986 20.571C213.392 20.2337 212.919 19.768 212.567 19.174C212.223 18.58 212.05 17.909 212.05 17.161C212.05 16.413 212.223 15.742 212.567 15.148C212.919 14.554 213.392 14.092 213.986 13.762C214.588 13.4247 215.244 13.256 215.955 13.256C216.769 13.256 217.492 13.4577 218.122 13.861C218.76 14.257 219.222 14.8217 219.508 15.555H218.001ZM224.427 14.367V16.611H227.067V17.634H224.427V19.977H227.397V21H223.173V13.344H227.397V14.367H224.427ZM236.664 13.355V21H235.41V15.764L233.078 21H232.209L229.866 15.764V21H228.612V13.355H229.965L232.649 19.35L235.322 13.355H236.664ZM243.328 15.632C243.328 16.0207 243.237 16.3873 243.053 16.732C242.87 17.0767 242.577 17.359 242.173 17.579C241.77 17.7917 241.253 17.898 240.622 17.898H239.236V21H237.982V13.355H240.622C241.209 13.355 241.704 13.4577 242.107 13.663C242.518 13.861 242.822 14.1323 243.02 14.477C243.226 14.8217 243.328 15.2067 243.328 15.632ZM240.622 16.875C241.099 16.875 241.455 16.7687 241.689 16.556C241.924 16.336 242.041 16.028 242.041 15.632C242.041 14.796 241.568 14.378 240.622 14.378H239.236V16.875H240.622ZM245.448 19.988H248.033V21H244.194V13.355H245.448V19.988ZM252.239 21.077C251.528 21.077 250.871 20.912 250.27 20.582C249.676 20.2447 249.203 19.779 248.851 19.185C248.506 18.5837 248.334 17.909 248.334 17.161C248.334 16.413 248.506 15.742 248.851 15.148C249.203 14.554 249.676 14.092 250.27 13.762C250.871 13.4247 251.528 13.256 252.239 13.256C252.958 13.256 253.614 13.4247 254.208 13.762C254.809 14.092 255.282 14.554 255.627 15.148C255.972 15.742 256.144 16.413 256.144 17.161C256.144 17.909 255.972 18.5837 255.627 19.185C255.282 19.779 254.809 20.2447 254.208 20.582C253.614 20.912 252.958 21.077 252.239 21.077ZM252.239 19.988C252.745 19.988 253.196 19.8743 253.592 19.647C253.988 19.4123 254.296 19.0823 254.516 18.657C254.743 18.2243 254.857 17.7257 254.857 17.161C254.857 16.5963 254.743 16.1013 254.516 15.676C254.296 15.2507 253.988 14.9243 253.592 14.697C253.196 14.4697 252.745 14.356 252.239 14.356C251.733 14.356 251.282 14.4697 250.886 14.697C250.49 14.9243 250.178 15.2507 249.951 15.676C249.731 16.1013 249.621 16.5963 249.621 17.161C249.621 17.7257 249.731 18.2243 249.951 18.657C250.178 19.0823 250.49 19.4123 250.886 19.647C251.282 19.8743 251.733 19.988 252.239 19.988ZM262.713 13.355L260.183 18.228V21H258.929V18.228L256.388 13.355H257.785L259.556 17.106L261.327 13.355H262.713ZM264.632 14.367V16.611H267.272V17.634H264.632V19.977H267.602V21H263.378V13.344H267.602V14.367H264.632ZM270.071 14.367V16.611H272.711V17.634H270.071V19.977H273.041V21H268.817V13.344H273.041V14.367H270.071ZM167.917 31.073C168.328 31.1463 168.676 31.3627 168.962 31.722C169.248 32.0813 169.391 32.4883 169.391 32.943C169.391 33.3317 169.288 33.6837 169.083 33.999C168.885 34.307 168.595 34.5527 168.214 34.736C167.833 34.912 167.389 35 166.883 35H163.825V27.355H166.74C167.261 27.355 167.708 27.443 168.082 27.619C168.456 27.795 168.738 28.0333 168.929 28.334C169.12 28.6273 169.215 28.9573 169.215 29.324C169.215 29.764 169.098 30.1307 168.863 30.424C168.628 30.7173 168.313 30.9337 167.917 31.073ZM165.079 30.567H166.63C167.041 30.567 167.36 30.4753 167.587 30.292C167.822 30.1013 167.939 29.83 167.939 29.478C167.939 29.1333 167.822 28.8657 167.587 28.675C167.36 28.477 167.041 28.378 166.63 28.378H165.079V30.567ZM166.773 33.977C167.198 33.977 167.532 33.8743 167.774 33.669C168.016 33.4637 168.137 33.1777 168.137 32.811C168.137 32.437 168.009 32.14 167.752 31.92C167.495 31.7 167.154 31.59 166.729 31.59H165.079V33.977H166.773ZM171.678 28.367V30.611H174.318V31.634H171.678V33.977H174.648V35H170.424V27.344H174.648V28.367H171.678ZM182.143 35H180.889L177.116 29.291V35H175.862V27.344H177.116L180.889 33.042V27.344H182.143V35ZM184.714 28.367V30.611H187.354V31.634H184.714V33.977H187.684V35H183.46V27.344H187.684V28.367H184.714ZM193.398 27.355V28.378H190.153V30.633H192.683V31.656H190.153V35H188.899V27.355H193.398ZM195.484 27.355V35H194.23V27.355H195.484ZM201.739 27.355V28.378H199.704V35H198.45V28.378H196.404V27.355H201.739ZM205.198 35.077C204.685 35.077 204.223 34.989 203.812 34.813C203.401 34.6297 203.079 34.373 202.844 34.043C202.609 33.713 202.492 33.328 202.492 32.888H203.834C203.863 33.218 203.992 33.4893 204.219 33.702C204.454 33.9147 204.78 34.021 205.198 34.021C205.631 34.021 205.968 33.9183 206.21 33.713C206.452 33.5003 206.573 33.229 206.573 32.899C206.573 32.6423 206.496 32.4333 206.342 32.272C206.195 32.1107 206.008 31.986 205.781 31.898C205.561 31.81 205.253 31.7147 204.857 31.612C204.358 31.48 203.951 31.348 203.636 31.216C203.328 31.0767 203.064 30.864 202.844 30.578C202.624 30.292 202.514 29.9107 202.514 29.434C202.514 28.994 202.624 28.609 202.844 28.279C203.064 27.949 203.372 27.696 203.768 27.52C204.164 27.344 204.622 27.256 205.143 27.256C205.884 27.256 206.489 27.443 206.958 27.817C207.435 28.1837 207.699 28.6897 207.75 29.335H206.364C206.342 29.0563 206.21 28.818 205.968 28.62C205.726 28.422 205.407 28.323 205.011 28.323C204.652 28.323 204.358 28.4147 204.131 28.598C203.904 28.7813 203.79 29.0453 203.79 29.39C203.79 29.6247 203.86 29.819 203.999 29.973C204.146 30.1197 204.329 30.237 204.549 30.325C204.769 30.413 205.07 30.5083 205.451 30.611C205.957 30.7503 206.368 30.8897 206.683 31.029C207.006 31.1683 207.277 31.3847 207.497 31.678C207.724 31.964 207.838 32.349 207.838 32.833C207.838 33.2217 207.732 33.5883 207.519 33.933C207.314 34.2777 207.009 34.5563 206.606 34.769C206.21 34.9743 205.741 35.077 205.198 35.077ZM216.014 27.355V28.378H212.769V30.633H215.299V31.656H212.769V35H211.515V27.355H216.014ZM220.333 35.077C219.622 35.077 218.966 34.912 218.364 34.582C217.77 34.2447 217.297 33.779 216.945 33.185C216.601 32.5837 216.428 31.909 216.428 31.161C216.428 30.413 216.601 29.742 216.945 29.148C217.297 28.554 217.77 28.092 218.364 27.762C218.966 27.4247 219.622 27.256 220.333 27.256C221.052 27.256 221.708 27.4247 222.302 27.762C222.904 28.092 223.377 28.554 223.721 29.148C224.066 29.742 224.238 30.413 224.238 31.161C224.238 31.909 224.066 32.5837 223.721 33.185C223.377 33.779 222.904 34.2447 222.302 34.582C221.708 34.912 221.052 35.077 220.333 35.077ZM220.333 33.988C220.839 33.988 221.29 33.8743 221.686 33.647C222.082 33.4123 222.39 33.0823 222.61 32.657C222.838 32.2243 222.951 31.7257 222.951 31.161C222.951 30.5963 222.838 30.1013 222.61 29.676C222.39 29.2507 222.082 28.9243 221.686 28.697C221.29 28.4697 220.839 28.356 220.333 28.356C219.827 28.356 219.376 28.4697 218.98 28.697C218.584 28.9243 218.273 29.2507 218.045 29.676C217.825 30.1013 217.715 30.5963 217.715 31.161C217.715 31.7257 217.825 32.2243 218.045 32.657C218.273 33.0823 218.584 33.4123 218.98 33.647C219.376 33.8743 219.827 33.988 220.333 33.988ZM229.113 35L227.353 31.942H226.396V35H225.142V27.355H227.782C228.369 27.355 228.864 27.4577 229.267 27.663C229.678 27.8683 229.982 28.1433 230.18 28.488C230.386 28.8327 230.488 29.2177 230.488 29.643C230.488 30.1417 230.342 30.5963 230.048 31.007C229.762 31.4103 229.319 31.6853 228.717 31.832L230.609 35H229.113ZM226.396 30.941H227.782C228.252 30.941 228.604 30.8237 228.838 30.589C229.08 30.3543 229.201 30.039 229.201 29.643C229.201 29.247 229.084 28.939 228.849 28.719C228.615 28.4917 228.259 28.378 227.782 28.378H226.396V30.941Z" fill="#3F526F"/>
<path d="M234.103 28.961C234.147 28.279 234.407 27.7473 234.884 27.366C235.368 26.9847 235.984 26.794 236.732 26.794C237.245 26.794 237.689 26.8857 238.063 27.069C238.437 27.2523 238.719 27.5017 238.91 27.817C239.101 28.1323 239.196 28.488 239.196 28.884C239.196 29.3387 239.075 29.7273 238.833 30.05C238.591 30.3727 238.301 30.589 237.964 30.699V30.743C238.397 30.875 238.734 31.117 238.976 31.469C239.218 31.8137 239.339 32.2573 239.339 32.8C239.339 33.2327 239.24 33.6177 239.042 33.955C238.844 34.2923 238.551 34.56 238.162 34.758C237.773 34.9487 237.308 35.044 236.765 35.044C235.973 35.044 235.32 34.8423 234.807 34.439C234.301 34.0283 234.03 33.4417 233.993 32.679H235.203C235.232 33.0677 235.383 33.3867 235.654 33.636C235.925 33.878 236.292 33.999 236.754 33.999C237.201 33.999 237.546 33.878 237.788 33.636C238.03 33.3867 238.151 33.0677 238.151 32.679C238.151 32.1657 237.986 31.8027 237.656 31.59C237.333 31.37 236.835 31.26 236.16 31.26H235.874V30.226H236.171C236.765 30.2187 237.216 30.1197 237.524 29.929C237.839 29.7383 237.997 29.4377 237.997 29.027C237.997 28.675 237.883 28.3963 237.656 28.191C237.429 27.9783 237.106 27.872 236.688 27.872C236.277 27.872 235.958 27.9783 235.731 28.191C235.504 28.3963 235.368 28.653 235.324 28.961H234.103ZM240.106 30.886C240.106 29.6173 240.319 28.6273 240.744 27.916C241.177 27.1973 241.917 26.838 242.966 26.838C244.015 26.838 244.752 27.1973 245.177 27.916C245.61 28.6273 245.826 29.6173 245.826 30.886C245.826 32.1693 245.61 33.174 245.177 33.9C244.752 34.6187 244.015 34.978 242.966 34.978C241.917 34.978 241.177 34.6187 240.744 33.9C240.319 33.174 240.106 32.1693 240.106 30.886ZM244.594 30.886C244.594 30.292 244.554 29.7897 244.473 29.379C244.4 28.9683 244.246 28.6347 244.011 28.378C243.776 28.114 243.428 27.982 242.966 27.982C242.504 27.982 242.156 28.114 241.921 28.378C241.686 28.6347 241.529 28.9683 241.448 29.379C241.375 29.7897 241.338 30.292 241.338 30.886C241.338 31.502 241.375 32.019 241.448 32.437C241.521 32.855 241.675 33.1923 241.91 33.449C242.152 33.7057 242.504 33.834 242.966 33.834C243.428 33.834 243.776 33.7057 244.011 33.449C244.253 33.1923 244.411 32.855 244.484 32.437C244.557 32.019 244.594 31.502 244.594 30.886ZM252.675 31.557H250.453V33.834H249.287V31.557H247.065V30.501H249.287V28.224H250.453V30.501H252.675V31.557ZM262.043 27.355L259.513 32.228V35H258.259V32.228L255.718 27.355H257.115L258.886 31.106L260.657 27.355H262.043ZM263.742 28.367V30.611H266.382V31.634H263.742V33.977H266.712V35H262.488V27.344H266.712V28.367H263.742ZM272.316 33.438H269.115L268.565 35H267.256L269.995 27.344H271.447L274.186 35H272.866L272.316 33.438ZM271.964 32.415L270.721 28.862L269.467 32.415H271.964ZM278.798 35L277.038 31.942H276.081V35H274.827V27.355H277.467C278.053 27.355 278.548 27.4577 278.952 27.663C279.362 27.8683 279.667 28.1433 279.865 28.488C280.07 28.8327 280.173 29.2177 280.173 29.643C280.173 30.1417 280.026 30.5963 279.733 31.007C279.447 31.4103 279.003 31.6853 278.402 31.832L280.294 35H278.798ZM276.081 30.941H277.467C277.936 30.941 278.288 30.8237 278.523 30.589C278.765 30.3543 278.886 30.039 278.886 29.643C278.886 29.247 278.768 28.939 278.534 28.719C278.299 28.4917 277.943 28.378 277.467 28.378H276.081V30.941ZM283.746 35.077C283.232 35.077 282.77 34.989 282.36 34.813C281.949 34.6297 281.626 34.373 281.392 34.043C281.157 33.713 281.04 33.328 281.04 32.888H282.382C282.411 33.218 282.539 33.4893 282.767 33.702C283.001 33.9147 283.328 34.021 283.746 34.021C284.178 34.021 284.516 33.9183 284.758 33.713C285 33.5003 285.121 33.229 285.121 32.899C285.121 32.6423 285.044 32.4333 284.89 32.272C284.743 32.1107 284.556 31.986 284.329 31.898C284.109 31.81 283.801 31.7147 283.405 31.612C282.906 31.48 282.499 31.348 282.184 31.216C281.876 31.0767 281.612 30.864 281.392 30.578C281.172 30.292 281.062 29.9107 281.062 29.434C281.062 28.994 281.172 28.609 281.392 28.279C281.612 27.949 281.92 27.696 282.316 27.52C282.712 27.344 283.17 27.256 283.691 27.256C284.431 27.256 285.036 27.443 285.506 27.817C285.982 28.1837 286.246 28.6897 286.298 29.335H284.912C284.89 29.0563 284.758 28.818 284.516 28.62C284.274 28.422 283.955 28.323 283.559 28.323C283.199 28.323 282.906 28.4147 282.679 28.598C282.451 28.7813 282.338 29.0453 282.338 29.39C282.338 29.6247 282.407 29.819 282.547 29.973C282.693 30.1197 282.877 30.237 283.097 30.325C283.317 30.413 283.617 30.5083 283.999 30.611C284.505 30.7503 284.915 30.8897 285.231 31.029C285.553 31.1683 285.825 31.3847 286.045 31.678C286.272 31.964 286.386 32.349 286.386 32.833C286.386 33.2217 286.279 33.5883 286.067 33.933C285.861 34.2777 285.557 34.5563 285.154 34.769C284.758 34.9743 284.288 35.077 283.746 35.077ZM288.888 27.355L288.745 32.69H287.7L287.557 27.355H288.888ZM288.261 35.077C288.034 35.077 287.843 35 287.689 34.846C287.535 34.692 287.458 34.5013 287.458 34.274C287.458 34.0467 287.535 33.856 287.689 33.702C287.843 33.548 288.034 33.471 288.261 33.471C288.481 33.471 288.668 33.548 288.822 33.702C288.976 33.856 289.053 34.0467 289.053 34.274C289.053 34.5013 288.976 34.692 288.822 34.846C288.668 35 288.481 35.077 288.261 35.077Z" fill="#FF595D"/>
</svg>
